<svg id="레이어_1" data-name="레이어 1" xmlns="http://www.w3.org/2000/svg" viewBox="0 0 423.04 420"><defs><style>.cls-1,.cls-3{fill:#fedd94;}.cls-2{fill:#fff;}.cls-3{font-size:150px;font-family:Noteworthy-Bold, Noteworthy;font-weight:700;}.cls-4{letter-spacing:0.02em;}</style></defs><path class="cls-1" d="M391.34,37.23H114.73A71.7,71.7,0,0,0,43,108.93V385.54a71.69,71.69,0,0,0,71.69,71.69H391.34A71.69,71.69,0,0,0,463,385.54V108.93A71.7,71.7,0,0,0,391.34,37.23Z" transform="translate(-40 -37.23)"/><rect class="cls-2" x="43" y="65.99" width="340" height="236" rx="51.86"/><path class="cls-2" d="M273.08,395.33l54.77-56.06a4.77,4.77,0,0,0-2-7.89l-67.75-21.24a4.78,4.78,0,0,0-6.14,5.35l13,77.29A4.77,4.77,0,0,0,273.08,395.33Z" transform="translate(-40 -37.23)"/><text class="cls-3" transform="translate(77.91 229.8)"><tspan class="cls-4">b</tspan><tspan x="79.87" y="0">log</tspan></text></svg>