<svg id="레이어_1" data-name="레이어 1" xmlns="http://www.w3.org/2000/svg" viewBox="0 0 420 420"><defs><style>.cls-1{fill:#ccadd0;}</style></defs><path class="cls-1" d="M388.31,40H111.69A71.69,71.69,0,0,0,40,111.69V388.31A71.69,71.69,0,0,0,111.69,460H388.31A71.69,71.69,0,0,0,460,388.31V111.69A71.69,71.69,0,0,0,388.31,40ZM420,369.25A50.75,50.75,0,0,1,369.25,420H130.75A50.75,50.75,0,0,1,80,369.25V130.75A50.75,50.75,0,0,1,130.75,80h238.5A50.75,50.75,0,0,1,420,130.75Z" transform="translate(-40 -40)"/><path class="cls-1" d="M250,147.8c-58.35,0-105.65,45.76-105.65,102.2S191.65,352.2,250,352.2,355.65,306.44,355.65,250,308.35,147.8,250,147.8Zm-.43,169.9a67.27,67.27,0,1,1,67.27-67.27A67.27,67.27,0,0,1,249.57,317.7Z" transform="translate(-40 -40)"/><circle class="cls-1" cx="316" cy="108" r="20"/></svg>