<?xml version="1.0" encoding="utf-8"?>
<!-- Generator: Adobe Illustrator 25.4.1, SVG Export Plug-In . SVG Version: 6.00 Build 0)  -->
<svg version="1.1" id="레이어_1" xmlns="http://www.w3.org/2000/svg" xmlns:xlink="http://www.w3.org/1999/xlink" x="0px"
	 y="0px" viewBox="0 0 420 420" style="enable-background:new 0 0 420 420;" xml:space="preserve">
<style type="text/css">
	.st0{fill:#FEDD94;}
	.st1{fill:#FFFFFF;}
	.st2{font-family:'ArialRoundedMTBold';}
	.st3{font-size:104.8527px;}
</style>
<path class="st0" d="M329.6,380.1H89.5c-27.6,0-50-22.4-50-50V90c0-27.6,22.4-50,50-50h240.1c27.6,0,50,22.4,50,50v240.1
	C379.6,357.7,357.2,380.1,329.6,380.1z"/>
<path class="st0" d="M347.9,0H71.3C31.7,0-0.4,32.1-0.4,71.7v276.6c0,39.6,32.1,71.7,71.7,71.7h276.6c39.6,0,71.7-32.1,71.7-71.7
	V71.7C419.6,32.1,387.5,0,347.9,0z M379.6,329.2c0,28-22.7,50.8-50.8,50.8l0,0H90.3c-28,0-50.8-22.7-50.8-50.8l0,0V90.8
	c0-28,22.7-50.8,50.8-50.8l0,0h238.5c28,0,50.8,22.7,50.8,50.8l0,0L379.6,329.2L379.6,329.2z"/>
<g>
	<g>
		<ellipse class="st1" cx="210" cy="188.9" rx="174.1" ry="137.7"/>
		<path class="st1" d="M106.5,364.1L127,263.4c0.6-2.7,3.5-3.9,5.9-2.5l62.6,40.3c2.2,1.4,2.4,4.8,0.1,6.3l-83,60.5
			C109.8,370.1,105.8,367.6,106.5,364.1z"/>
	</g>
	<text transform="matrix(1 0 0 1 72.9149 229.3149)" class="st0 st2 st3">TALK</text>
</g>
</svg>
